<mxfile host="app.diagrams.net" modified="2022-04-03T05:24:48.094Z" agent="5.0 (Windows NT 10.0; Win64; x64) AppleWebKit/537.36 (KHTML, like Gecko) Chrome/99.0.4844.84 Safari/537.36" etag="-GcNcsBY9tHnI-lRIC-l" version="17.2.4" type="github">
  <diagram id="xUhw8L9ZRRuSGp7s6KGe" name="Page-1">
    <mxGraphModel dx="716" dy="372" grid="1" gridSize="10" guides="1" tooltips="1" connect="1" arrows="1" fold="1" page="1" pageScale="1" pageWidth="850" pageHeight="1100" math="0" shadow="0">
      <root>
        <mxCell id="0" />
        <mxCell id="1" parent="0" />
        <mxCell id="24ixqi11CNkzJ_E0YAHF-1" value="User Registration" style="html=1;" vertex="1" parent="1">
          <mxGeometry x="90" y="80" width="110" height="50" as="geometry" />
        </mxCell>
        <mxCell id="24ixqi11CNkzJ_E0YAHF-2" value="System Database" style="html=1;" vertex="1" parent="1">
          <mxGeometry x="540" y="86" width="110" height="50" as="geometry" />
        </mxCell>
        <mxCell id="24ixqi11CNkzJ_E0YAHF-3" value="Take Test" style="html=1;" vertex="1" parent="1">
          <mxGeometry x="90" y="370" width="110" height="50" as="geometry" />
        </mxCell>
        <mxCell id="24ixqi11CNkzJ_E0YAHF-4" value="Main Page" style="html=1;" vertex="1" parent="1">
          <mxGeometry x="547" y="370" width="110" height="50" as="geometry" />
        </mxCell>
        <mxCell id="24ixqi11CNkzJ_E0YAHF-5" value="" style="line;strokeWidth=1;fillColor=none;align=left;verticalAlign=middle;spacingTop=-1;spacingLeft=3;spacingRight=3;rotatable=0;labelPosition=right;points=[];portConstraint=eastwest;" vertex="1" parent="1">
          <mxGeometry x="200" y="101" width="340" height="8" as="geometry" />
        </mxCell>
        <mxCell id="24ixqi11CNkzJ_E0YAHF-8" value="" style="endArrow=none;html=1;rounded=0;entryX=0.5;entryY=1;entryDx=0;entryDy=0;exitX=0.442;exitY=-0.044;exitDx=0;exitDy=0;exitPerimeter=0;" edge="1" parent="1" source="24ixqi11CNkzJ_E0YAHF-4" target="24ixqi11CNkzJ_E0YAHF-2">
          <mxGeometry width="50" height="50" relative="1" as="geometry">
            <mxPoint x="600" y="370" as="sourcePoint" />
            <mxPoint x="650" y="320" as="targetPoint" />
          </mxGeometry>
        </mxCell>
        <mxCell id="24ixqi11CNkzJ_E0YAHF-9" value="" style="endArrow=none;html=1;rounded=0;entryX=0.25;entryY=1;entryDx=0;entryDy=0;" edge="1" parent="1" target="24ixqi11CNkzJ_E0YAHF-2">
          <mxGeometry width="50" height="50" relative="1" as="geometry">
            <mxPoint x="200" y="380" as="sourcePoint" />
            <mxPoint x="560" y="140" as="targetPoint" />
          </mxGeometry>
        </mxCell>
        <mxCell id="24ixqi11CNkzJ_E0YAHF-10" value="" style="endArrow=none;html=1;rounded=0;" edge="1" parent="1">
          <mxGeometry width="50" height="50" relative="1" as="geometry">
            <mxPoint x="550" y="370" as="sourcePoint" />
            <mxPoint x="186" y="130" as="targetPoint" />
          </mxGeometry>
        </mxCell>
        <mxCell id="24ixqi11CNkzJ_E0YAHF-11" value="Authentication" style="html=1;verticalAlign=bottom;endArrow=block;rounded=0;" edge="1" parent="1">
          <mxGeometry width="80" relative="1" as="geometry">
            <mxPoint x="310" y="80" as="sourcePoint" />
            <mxPoint x="390" y="80" as="targetPoint" />
          </mxGeometry>
        </mxCell>
        <mxCell id="24ixqi11CNkzJ_E0YAHF-12" value="Result&amp;nbsp;" style="html=1;verticalAlign=bottom;endArrow=block;rounded=0;" edge="1" parent="1">
          <mxGeometry x="-0.3034" y="15" width="80" relative="1" as="geometry">
            <mxPoint x="270" y="320" as="sourcePoint" />
            <mxPoint x="350" y="270" as="targetPoint" />
            <mxPoint as="offset" />
          </mxGeometry>
        </mxCell>
        <mxCell id="24ixqi11CNkzJ_E0YAHF-13" value="Take Test" style="html=1;verticalAlign=bottom;endArrow=block;rounded=0;" edge="1" parent="1">
          <mxGeometry x="-0.4359" y="28" width="80" relative="1" as="geometry">
            <mxPoint x="370" y="280" as="sourcePoint" />
            <mxPoint x="280" y="340" as="targetPoint" />
            <mxPoint as="offset" />
          </mxGeometry>
        </mxCell>
        <mxCell id="24ixqi11CNkzJ_E0YAHF-14" value="Registration" style="html=1;verticalAlign=bottom;endArrow=block;rounded=0;" edge="1" parent="1">
          <mxGeometry x="1" y="36" width="80" relative="1" as="geometry">
            <mxPoint x="330" y="240" as="sourcePoint" />
            <mxPoint x="250" y="190" as="targetPoint" />
            <mxPoint x="-2" y="-1" as="offset" />
          </mxGeometry>
        </mxCell>
        <mxCell id="24ixqi11CNkzJ_E0YAHF-15" value="Not Valid" style="html=1;verticalAlign=bottom;endArrow=block;rounded=0;" edge="1" parent="1">
          <mxGeometry x="0.1111" y="30" width="80" relative="1" as="geometry">
            <mxPoint x="610" y="210" as="sourcePoint" />
            <mxPoint x="610" y="300" as="targetPoint" />
            <Array as="points">
              <mxPoint x="610" y="250" />
            </Array>
            <mxPoint as="offset" />
          </mxGeometry>
        </mxCell>
      </root>
    </mxGraphModel>
  </diagram>
</mxfile>
